ffmpeg started on 2025-05-12 at 13:00:10
Report written to "D:\Convert\FFMetrics\reports\psnr_report-6.txt"
Log level: 32
Command line:
ffmpeg -hide_banner -nostdin -i "G:\\\xc0\xed\xe8\xec\xe5\\\xce\xed\xe3\xee\xe8\xed\xe3\xe8\\!_35_\xcb\xe5\xf2\xee_2024\\DreamCast\\\xc0\xeb\xff \xe8\xed\xee\xe3\xe4\xe0 \xea\xee\xea\xe5\xf2\xed\xe8\xf7\xe0\xe5\xf2 \xf1\xee \xec\xed\xee\xe9 \xef\xee-\xf0\xf3\xf1\xf1\xea\xe8\\[DC] Roshidere - 02_Telegram_HEVC.mkv" -i "G:\\\xc0\xed\xe8\xec\xe5\\\xce\xed\xe3\xee\xe8\xed\xe3\xe8\\!_35_\xcb\xe5\xf2\xee_2024\\DreamCast\\\xc0\xeb\xff \xe8\xed\xee\xe3\xe4\xe0 \xea\xee\xea\xe5\xf2\xed\xe8\xf7\xe0\xe5\xf2 \xf1\xee \xec\xed\xee\xe9 \xef\xee-\xf0\xf3\xf1\xf1\xea\xe8\\[DC] Roshidere - 02_Telegram.mp4" -lavfi "[0:v]settb=AVTB,setpts=PTS-STARTPTS,format=pix_fmts=yuv420p10,fps=24000/1001,scale=1920:1080:flags=bicubic[main];[1:v]settb=AVTB,setpts=PTS-STARTPTS,format=pix_fmts=yuv420p,fps=24000/1001,scale=1920:1080:flags=bicubic[ref];[main][ref]psnr=eof_action=endall:stats_file='D\\:/Convert/FFMetrics/logs/psnr_logfile-6.txt'" -f null -
Input #0, matroska,webm, from 'G:\Аниме\Онгоинги\!_35_Лето_2024\DreamCast\Аля иногда кокетничает со мной по-русски\[DC] Roshidere - 02_Telegram_HEVC.mkv':
  Metadata:
    COMPATIBLE_BRANDS: isomiso2avc1mp41
    MAJOR_BRAND     : isom
    MINOR_VERSION   : 512
    ENCODER         : Lavf61.7.100
  Duration: 00:24:47.66, start: -0.021000, bitrate: 1106 kb/s
  Stream #0:0: Video: hevc (Main 10), yuv420p10le(tv, bt709, progressive), 1920x1080 [SAR 1:1 DAR 16:9], 23.98 fps, 23.98 tbr, 1k tbn (default)
      Metadata:
        HANDLER_NAME    : VideoHandler
        VENDOR_ID       : [0][0][0][0]
        ENCODER         : Lavc61.19.100 libx265
        BPS             : 910266
        DURATION        : 00:24:46.484708333
        NUMBER_OF_FRAMES: 35640
        NUMBER_OF_BYTES : 169137155
        _STATISTICS_WRITING_APP: mkvpropedit v66.0.0 ('Josie') 64-bit
        _STATISTICS_WRITING_DATE_UTC: 2025-05-06 11:33:09
        _STATISTICS_TAGS: BPS DURATION NUMBER_OF_FRAMES NUMBER_OF_BYTES
  Stream #0:1: Audio: aac (LC), 48000 Hz, stereo, fltp (default)
      Metadata:
        HANDLER_NAME    : SoundHandler
        VENDOR_ID       : [0][0][0][0]
        ENCODER         : Lavc61.19.100 aac
        BPS             : 193270
        DURATION        : 00:24:47.658000000
        NUMBER_OF_FRAMES: 69735
        NUMBER_OF_BYTES : 35939982
        _STATISTICS_WRITING_APP: mkvpropedit v66.0.0 ('Josie') 64-bit
        _STATISTICS_WRITING_DATE_UTC: 2025-05-06 11:33:09
        _STATISTICS_TAGS: BPS DURATION NUMBER_OF_FRAMES NUMBER_OF_BYTES
Input #1, mov,mp4,m4a,3gp,3g2,mj2, from 'G:\Аниме\Онгоинги\!_35_Лето_2024\DreamCast\Аля иногда кокетничает со мной по-русски\[DC] Roshidere - 02_Telegram.mp4':
  Metadata:
    major_brand     : isom
    minor_version   : 512
    compatible_brands: isomiso2avc1mp41
    encoder         : Lavf61.1.100
  Duration: 00:24:47.60, start: 0.000000, bitrate: 3704 kb/s
  Stream #1:0[0x1](und): Video: h264 (High) (avc1 / 0x31637661), yuv420p(tv, bt709, progressive), 1920x1080 [SAR 1:1 DAR 16:9], 3559 kb/s, 23.98 fps, 23.98 tbr, 24k tbn (default)
      Metadata:
        handler_name    : VideoHandler
        vendor_id       : [0][0][0][0]
        encoder         : Lavc61.3.100 h264_qsv
  Stream #1:1[0x2](und): Audio: aac (HE-AACv2) (mp4a / 0x6134706D), 48000 Hz, stereo, fltp, 144 kb/s (default)
      Metadata:
        handler_name    : SoundHandler
        vendor_id       : [0][0][0][0]
Stream mapping:
  Stream #0:0 (hevc) -> settb:default
  Stream #1:0 (h264) -> settb:default
  psnr:default -> Stream #0:0 (wrapped_avframe)
  Stream #0:1 -> #0:1 (aac (native) -> pcm_s16le (native))
Output #0, null, to 'pipe:':
  Metadata:
    COMPATIBLE_BRANDS: isomiso2avc1mp41
    MAJOR_BRAND     : isom
    MINOR_VERSION   : 512
    encoder         : Lavf61.7.100
  Stream #0:0: Video: wrapped_avframe, yuv420p10le(tv, bt709, progressive), 1920x1080 [SAR 1:1 DAR 16:9], q=2-31, 200 kb/s, 23.98 fps, 23.98 tbn
      Metadata:
        encoder         : Lavc61.19.100 wrapped_avframe
  Stream #0:1: Audio: pcm_s16le, 48000 Hz, stereo, s16, 1536 kb/s (default)
      Metadata:
        HANDLER_NAME    : SoundHandler
        VENDOR_ID       : [0][0][0][0]
        _STATISTICS_TAGS: BPS DURATION NUMBER_OF_FRAMES NUMBER_OF_BYTES
        BPS             : 193270
        DURATION        : 00:24:47.658000000
        NUMBER_OF_FRAMES: 69735
        NUMBER_OF_BYTES : 35939982
        _STATISTICS_WRITING_APP: mkvpropedit v66.0.0 ('Josie') 64-bit
        _STATISTICS_WRITING_DATE_UTC: 2025-05-06 11:33:09
        encoder         : Lavc61.19.100 pcm_s16le
frame=  164 fps=0.0 q=-0.0 size=N/A time=00:00:06.84 bitrate=N/A speed=13.4x    frame=  423 fps=409 q=-0.0 size=N/A time=00:00:17.64 bitrate=N/A speed=17.1x    frame=  697 fps=449 q=-0.0 size=N/A time=00:00:29.07 bitrate=N/A speed=18.7x    frame=  949 fps=458 q=-0.0 size=N/A time=00:00:39.58 bitrate=N/A speed=19.1x    frame= 1174 fps=455 q=-0.0 size=N/A time=00:00:48.96 bitrate=N/A speed=  19x    frame= 1435 fps=463 q=-0.0 size=N/A time=00:00:59.85 bitrate=N/A speed=19.3x    frame= 1681 fps=466 q=-0.0 size=N/A time=00:01:10.11 bitrate=N/A speed=19.4x    frame= 1963 fps=476 q=-0.0 size=N/A time=00:01:21.87 bitrate=N/A speed=19.8x    frame= 2226 fps=479 q=-0.0 size=N/A time=00:01:32.84 bitrate=N/A speed=  20x    frame= 2495 fps=483 q=-0.0 size=N/A time=00:01:44.06 bitrate=N/A speed=20.2x    frame= 2753 fps=485 q=-0.0 size=N/A time=00:01:54.82 bitrate=N/A speed=20.2x    frame= 3018 fps=488 q=-0.0 size=N/A time=00:02:05.87 bitrate=N/A speed=20.4x    frame= 3291 fps=490 q=-0.0 size=N/A time=00:02:17.26 bitrate=N/A speed=20.5x    frame= 3498 fps=484 q=-0.0 size=N/A time=00:02:25.89 bitrate=N/A speed=20.2x    frame= 3673 fps=475 q=-0.0 size=N/A time=00:02:33.19 bitrate=N/A speed=19.8x    frame= 3896 fps=472 q=-0.0 size=N/A time=00:02:42.49 bitrate=N/A speed=19.7x    frame= 4089 fps=466 q=-0.0 size=N/A time=00:02:50.54 bitrate=N/A speed=19.4x    frame= 4276 fps=461 q=-0.0 size=N/A time=00:02:58.34 bitrate=N/A speed=19.2x    frame= 4513 fps=461 q=-0.0 size=N/A time=00:03:08.22 bitrate=N/A speed=19.2x    frame= 4690 fps=454 q=-0.0 size=N/A time=00:03:15.61 bitrate=N/A speed=  19x    frame= 4851 fps=448 q=-0.0 size=N/A time=00:03:22.32 bitrate=N/A speed=18.7x    frame= 5019 fps=442 q=-0.0 size=N/A time=00:03:29.33 bitrate=N/A speed=18.5x    frame= 5215 fps=439 q=-0.0 size=N/A time=00:03:37.50 bitrate=N/A speed=18.3x    frame= 5421 fps=438 q=-0.0 size=N/A time=00:03:46.10 bitrate=N/A speed=18.3x    frame= 5668 fps=440 q=-0.0 size=N/A time=00:03:56.40 bitrate=N/A speed=18.3x    frame= 5930 fps=442 q=-0.0 size=N/A time=00:04:07.33 bitrate=N/A speed=18.4x    frame= 6203 fps=445 q=-0.0 size=N/A time=00:04:18.71 bitrate=N/A speed=18.6x    frame= 6465 fps=448 q=-0.0 size=N/A time=00:04:29.64 bitrate=N/A speed=18.7x    frame= 6711 fps=449 q=-0.0 size=N/A time=00:04:39.90 bitrate=N/A speed=18.7x    frame= 6963 fps=450 q=-0.0 size=N/A time=00:04:50.41 bitrate=N/A speed=18.8x    frame= 7211 fps=451 q=-0.0 size=N/A time=00:05:00.75 bitrate=N/A speed=18.8x    frame= 7470 fps=453 q=-0.0 size=N/A time=00:05:11.56 bitrate=N/A speed=18.9x    frame= 7750 fps=455 q=-0.0 size=N/A time=00:05:23.23 bitrate=N/A speed=  19x    frame= 8012 fps=457 q=-0.0 size=N/A time=00:05:34.16 bitrate=N/A speed=19.1x    frame= 8274 fps=458 q=-0.0 size=N/A time=00:05:45.09 bitrate=N/A speed=19.1x    frame= 8535 fps=460 q=-0.0 size=N/A time=00:05:55.98 bitrate=N/A speed=19.2x    frame= 8784 fps=460 q=-0.0 size=N/A time=00:06:06.36 bitrate=N/A speed=19.2x    frame= 9048 fps=462 q=-0.0 size=N/A time=00:06:17.37 bitrate=N/A speed=19.3x    frame= 9306 fps=463 q=-0.0 size=N/A time=00:06:28.13 bitrate=N/A speed=19.3x    frame= 9566 fps=464 q=-0.0 size=N/A time=00:06:38.98 bitrate=N/A speed=19.3x    frame= 9781 fps=463 q=-0.0 size=N/A time=00:06:47.94 bitrate=N/A speed=19.3x    frame=10018 fps=463 q=-0.0 size=N/A time=00:06:57.83 bitrate=N/A speed=19.3x    frame=10284 fps=464 q=-0.0 size=N/A time=00:07:08.92 bitrate=N/A speed=19.3x    frame=10542 fps=464 q=-0.0 size=N/A time=00:07:19.68 bitrate=N/A speed=19.4x    frame=10797 fps=465 q=-0.0 size=N/A time=00:07:30.32 bitrate=N/A speed=19.4x    frame=11042 fps=466 q=-0.0 size=N/A time=00:07:40.54 bitrate=N/A speed=19.4x    frame=11292 fps=466 q=-0.0 size=N/A time=00:07:50.97 bitrate=N/A speed=19.4x    frame=11543 fps=466 q=-0.0 size=N/A time=00:08:01.43 bitrate=N/A speed=19.5x    frame=11803 fps=467 q=-0.0 size=N/A time=00:08:12.28 bitrate=N/A speed=19.5x    frame=12064 fps=468 q=-0.0 size=N/A time=00:08:23.16 bitrate=N/A speed=19.5x    frame=12326 fps=469 q=-0.0 size=N/A time=00:08:34.09 bitrate=N/A speed=19.6x    frame=12464 fps=465 q=-0.0 size=N/A time=00:08:39.85 bitrate=N/A speed=19.4x    frame=12686 fps=464 q=-0.0 size=N/A time=00:08:49.11 bitrate=N/A speed=19.4x    frame=12937 fps=465 q=-0.0 size=N/A time=00:08:59.58 bitrate=N/A speed=19.4x    frame=13219 fps=466 q=-0.0 size=N/A time=00:09:11.34 bitrate=N/A speed=19.4x    frame=13496 fps=467 q=-0.0 size=N/A time=00:09:22.89 bitrate=N/A speed=19.5x    frame=13740 fps=468 q=-0.0 size=N/A time=00:09:33.07 bitrate=N/A speed=19.5x    frame=13957 fps=467 q=-0.0 size=N/A time=00:09:42.12 bitrate=N/A speed=19.5x    frame=14191 fps=466 q=-0.0 size=N/A time=00:09:51.88 bitrate=N/A speed=19.5x    frame=14451 fps=467 q=-0.0 size=N/A time=00:10:02.72 bitrate=N/A speed=19.5x    frame=14701 fps=467 q=-0.0 size=N/A time=00:10:13.19 bitrate=N/A speed=19.5x    frame=14954 fps=468 q=-0.0 size=N/A time=00:10:23.70 bitrate=N/A speed=19.5x    frame=15180 fps=467 q=-0.0 size=N/A time=00:10:33.13 bitrate=N/A speed=19.5x    frame=15408 fps=467 q=-0.0 size=N/A time=00:10:42.64 bitrate=N/A speed=19.5x    frame=15689 fps=468 q=-0.0 size=N/A time=00:10:54.36 bitrate=N/A speed=19.5x    frame=15936 fps=468 q=-0.0 size=N/A time=00:11:04.66 bitrate=N/A speed=19.5x    frame=16196 fps=469 q=-0.0 size=N/A time=00:11:15.50 bitrate=N/A speed=19.5x    frame=16455 fps=469 q=-0.0 size=N/A time=00:11:26.31 bitrate=N/A speed=19.6x    frame=16717 fps=470 q=-0.0 size=N/A time=00:11:37.23 bitrate=N/A speed=19.6x    frame=16988 fps=471 q=-0.0 size=N/A time=00:11:48.54 bitrate=N/A speed=19.6x    frame=17257 fps=471 q=-0.0 size=N/A time=00:11:59.76 bitrate=N/A speed=19.7x    frame=17535 fps=472 q=-0.0 size=N/A time=00:12:11.35 bitrate=N/A speed=19.7x    frame=17808 fps=473 q=-0.0 size=N/A time=00:12:22.74 bitrate=N/A speed=19.7x    frame=18023 fps=472 q=-0.0 size=N/A time=00:12:31.70 bitrate=N/A speed=19.7x    frame=18282 fps=472 q=-0.0 size=N/A time=00:12:42.51 bitrate=N/A speed=19.7x    frame=18543 fps=473 q=-0.0 size=N/A time=00:12:53.39 bitrate=N/A speed=19.7x    frame=18792 fps=473 q=-0.0 size=N/A time=00:13:03.78 bitrate=N/A speed=19.7x    frame=19062 fps=474 q=-0.0 size=N/A time=00:13:15.04 bitrate=N/A speed=19.8x    frame=19325 fps=474 q=-0.0 size=N/A time=00:13:26.01 bitrate=N/A speed=19.8x    frame=19579 fps=474 q=-0.0 size=N/A time=00:13:36.60 bitrate=N/A speed=19.8x    frame=19846 fps=475 q=-0.0 size=N/A time=00:13:47.74 bitrate=N/A speed=19.8x    frame=20078 fps=475 q=-0.0 size=N/A time=00:13:57.41 bitrate=N/A speed=19.8x    frame=20312 fps=474 q=-0.0 size=N/A time=00:14:07.17 bitrate=N/A speed=19.8x    frame=20556 fps=474 q=-0.0 size=N/A time=00:14:17.35 bitrate=N/A speed=19.8x    frame=20794 fps=474 q=-0.0 size=N/A time=00:14:27.28 bitrate=N/A speed=19.8x    frame=21062 fps=475 q=-0.0 size=N/A time=00:14:38.46 bitrate=N/A speed=19.8x    frame=21307 fps=475 q=-0.0 size=N/A time=00:14:48.67 bitrate=N/A speed=19.8x    frame=21534 fps=474 q=-0.0 size=N/A time=00:14:58.14 bitrate=N/A speed=19.8x    frame=21787 fps=475 q=-0.0 size=N/A time=00:15:08.69 bitrate=N/A speed=19.8x    frame=22041 fps=475 q=-0.0 size=N/A time=00:15:19.29 bitrate=N/A speed=19.8x    frame=22308 fps=475 q=-0.0 size=N/A time=00:15:30.42 bitrate=N/A speed=19.8x    frame=22572 fps=476 q=-0.0 size=N/A time=00:15:41.44 bitrate=N/A speed=19.8x    frame=22813 fps=476 q=-0.0 size=N/A time=00:15:51.49 bitrate=N/A speed=19.8x    frame=23089 fps=476 q=-0.0 size=N/A time=00:16:03.00 bitrate=N/A speed=19.9x    frame=23338 fps=476 q=-0.0 size=N/A time=00:16:13.38 bitrate=N/A speed=19.9x    frame=23615 fps=477 q=-0.0 size=N/A time=00:16:24.94 bitrate=N/A speed=19.9x    frame=23848 fps=477 q=-0.0 size=N/A time=00:16:34.66 bitrate=N/A speed=19.9x    frame=24086 fps=476 q=-0.0 size=N/A time=00:16:44.58 bitrate=N/A speed=19.9x    frame=24344 fps=477 q=-0.0 size=N/A time=00:16:55.34 bitrate=N/A speed=19.9x    frame=24573 fps=476 q=-0.0 size=N/A time=00:17:04.89 bitrate=N/A speed=19.9x    frame=24811 fps=476 q=-0.0 size=N/A time=00:17:14.82 bitrate=N/A speed=19.9x    frame=25067 fps=476 q=-0.0 size=N/A time=00:17:25.50 bitrate=N/A speed=19.9x    frame=25318 fps=476 q=-0.0 size=N/A time=00:17:35.97 bitrate=N/A speed=19.9x    frame=25580 fps=477 q=-0.0 size=N/A time=00:17:46.89 bitrate=N/A speed=19.9x    frame=25849 fps=477 q=-0.0 size=N/A time=00:17:58.11 bitrate=N/A speed=19.9x    frame=26088 fps=477 q=-0.0 size=N/A time=00:18:08.08 bitrate=N/A speed=19.9x    frame=26326 fps=477 q=-0.0 size=N/A time=00:18:18.01 bitrate=N/A speed=19.9x    frame=26580 fps=477 q=-0.0 size=N/A time=00:18:28.60 bitrate=N/A speed=19.9x    frame=26853 fps=477 q=-0.0 size=N/A time=00:18:39.99 bitrate=N/A speed=19.9x    frame=27103 fps=477 q=-0.0 size=N/A time=00:18:50.42 bitrate=N/A speed=19.9x    frame=27374 fps=478 q=-0.0 size=N/A time=00:19:01.72 bitrate=N/A speed=19.9x    frame=27637 fps=478 q=-0.0 size=N/A time=00:19:12.69 bitrate=N/A speed=19.9x    frame=27892 fps=478 q=-0.0 size=N/A time=00:19:23.32 bitrate=N/A speed=  20x    frame=28139 fps=478 q=-0.0 size=N/A time=00:19:33.63 bitrate=N/A speed=  20x    frame=28388 fps=478 q=-0.0 size=N/A time=00:19:44.01 bitrate=N/A speed=  20x    frame=28630 fps=478 q=-0.0 size=N/A time=00:19:54.10 bitrate=N/A speed=  20x    frame=28874 fps=478 q=-0.0 size=N/A time=00:20:04.28 bitrate=N/A speed=19.9x    frame=29118 fps=478 q=-0.0 size=N/A time=00:20:14.46 bitrate=N/A speed=19.9x    frame=29365 fps=478 q=-0.0 size=N/A time=00:20:24.76 bitrate=N/A speed=  20x    frame=29619 fps=478 q=-0.0 size=N/A time=00:20:35.35 bitrate=N/A speed=  20x    frame=29782 fps=477 q=-0.0 size=N/A time=00:20:42.15 bitrate=N/A speed=19.9x    frame=30028 fps=477 q=-0.0 size=N/A time=00:20:52.41 bitrate=N/A speed=19.9x    frame=30286 fps=477 q=-0.0 size=N/A time=00:21:03.17 bitrate=N/A speed=19.9x    frame=30533 fps=477 q=-0.0 size=N/A time=00:21:13.48 bitrate=N/A speed=19.9x    frame=30795 fps=477 q=-0.0 size=N/A time=00:21:24.40 bitrate=N/A speed=19.9x    frame=31036 fps=477 q=-0.0 size=N/A time=00:21:34.45 bitrate=N/A speed=19.9x    frame=31243 fps=477 q=-0.0 size=N/A time=00:21:43.09 bitrate=N/A speed=19.9x    frame=31332 fps=475 q=-0.0 size=N/A time=00:21:46.80 bitrate=N/A speed=19.8x    frame=31527 fps=474 q=-0.0 size=N/A time=00:21:54.93 bitrate=N/A speed=19.8x    frame=31783 fps=474 q=-0.0 size=N/A time=00:22:05.61 bitrate=N/A speed=19.8x    frame=32023 fps=474 q=-0.0 size=N/A time=00:22:15.62 bitrate=N/A speed=19.8x    frame=32282 fps=474 q=-0.0 size=N/A time=00:22:26.42 bitrate=N/A speed=19.8x    frame=32527 fps=474 q=-0.0 size=N/A time=00:22:36.64 bitrate=N/A speed=19.8x    frame=32755 fps=474 q=-0.0 size=N/A time=00:22:46.15 bitrate=N/A speed=19.8x    frame=32993 fps=474 q=-0.0 size=N/A time=00:22:56.08 bitrate=N/A speed=19.8x    frame=33197 fps=473 q=-0.0 size=N/A time=00:23:04.59 bitrate=N/A speed=19.7x    frame=33417 fps=473 q=-0.0 size=N/A time=00:23:13.76 bitrate=N/A speed=19.7x    frame=33598 fps=472 q=-0.0 size=N/A time=00:23:21.31 bitrate=N/A speed=19.7x    frame=33777 fps=471 q=-0.0 size=N/A time=00:23:28.78 bitrate=N/A speed=19.6x    frame=33925 fps=470 q=-0.0 size=N/A time=00:23:34.95 bitrate=N/A speed=19.6x    frame=34105 fps=469 q=-0.0 size=N/A time=00:23:42.46 bitrate=N/A speed=19.6x    frame=34276 fps=468 q=-0.0 size=N/A time=00:23:49.59 bitrate=N/A speed=19.5x    frame=34454 fps=467 q=-0.0 size=N/A time=00:23:57.01 bitrate=N/A speed=19.5x    frame=34640 fps=466 q=-0.0 size=N/A time=00:24:04.77 bitrate=N/A speed=19.4x    frame=34812 fps=465 q=-0.0 size=N/A time=00:24:11.95 bitrate=N/A speed=19.4x    frame=34996 fps=465 q=-0.0 size=N/A time=00:24:19.62 bitrate=N/A speed=19.4x    frame=35191 fps=464 q=-0.0 size=N/A time=00:24:27.75 bitrate=N/A speed=19.4x    frame=35360 fps=463 q=-0.0 size=N/A time=00:24:34.80 bitrate=N/A speed=19.3x    frame=35565 fps=463 q=-0.0 size=N/A time=00:24:43.35 bitrate=N/A speed=19.3x    [Parsed_psnr_10 @ 000001a688329d80] PSNR y:48.003172 u:50.321850 v:49.594936 average:48.558789 min:40.539463 max:inf
[out#0/null @ 000001a688a3e580] video:15314KiB audio:278940KiB subtitle:0KiB other streams:0KiB global headers:0KiB muxing overhead: unknown
frame=35640 fps=463 q=-0.0 Lsize=N/A time=00:24:46.48 bitrate=N/A speed=19.3x    
